<?xml version="1.0" encoding="utf-8"?>
<!-- Generator: Adobe Illustrator 27.0.0, SVG Export Plug-In . SVG Version: 6.00 Build 0)  -->
<svg version="1.1" id="Layer_1" xmlns="http://www.w3.org/2000/svg" xmlns:xlink="http://www.w3.org/1999/xlink" x="0px" y="0px"
	 viewBox="0 0 191 191" style="enable-background:new 0 0 191 191;" xml:space="preserve">
<style type="text/css">
	.st0{fill:#F5F5F5;}
	.st1{clip-path:url(#SVGID_00000050632382947061126980000006223094013000044164_);}
	.st2{fill:#000002;}
	.st3{fill:#F2631F;}
</style>
<circle class="st0" cx="95.5" cy="95.5" r="95.5"/>
<g>
	<defs>
		<rect id="SVGID_1_" x="48" y="52" width="97" height="93"/>
	</defs>
	<clipPath id="SVGID_00000118369356112928702960000004178933819062845630_">
		<use xlink:href="#SVGID_1_"  style="overflow:visible;"/>
	</clipPath>
	<g style="clip-path:url(#SVGID_00000118369356112928702960000004178933819062845630_);">
		<path class="st2" d="M93.3,131.3c-21.6,0-39.1-17.8-39.1-39.7C54.1,69.8,71.7,52,93.3,52c21.6,0,39.1,17.8,39.1,39.7
			C132.4,113.6,114.9,131.4,93.3,131.3L93.3,131.3z M93.3,54.5c-20.2,0-36.7,16.7-36.7,37.2c0,20.5,16.5,37.2,36.7,37.2
			c20.3,0,36.7-16.7,36.7-37.2C130,71.1,113.5,54.5,93.3,54.5z"/>
		<path class="st2" d="M98.6,138.5l-0.7-2.3c19.2-6.2,32.1-24,32.1-44.5h2.4C132.4,113.2,118.8,132,98.6,138.5L98.6,138.5z"/>
		<path class="st3" d="M93.3,143.8c2.6,0,4.7-2.1,4.7-4.7s-2.1-4.7-4.7-4.7s-4.7,2.1-4.7,4.7S90.7,143.8,93.3,143.8z"/>
		<path d="M93.3,145c-3.2,0-5.9-2.7-5.9-6s2.6-6,5.9-6c3.2,0,5.9,2.7,5.9,6S96.5,145,93.3,145z M93.3,135.5c-1.9,0-3.5,1.6-3.5,3.5
			s1.5,3.5,3.5,3.5c1.9,0,3.5-1.6,3.5-3.5S95.2,135.5,93.3,135.5z"/>
		<path class="st3" d="M128.3,107.4c8.5,0,15.5-7,15.5-15.7c0-8.7-6.9-15.7-15.5-15.7C128.3,76,136.1,91.9,128.3,107.4z"/>
		<path d="M128.3,108.6h-2l0.9-1.8c7.4-14.7,0.1-30.1,0-30.3l-0.8-1.8h1.9c9.2,0,16.7,7.6,16.7,16.9S137.5,108.6,128.3,108.6z
			 M130.2,77.3c1.7,4.5,5.3,16.5,0.1,28.6c6.9-1,12.3-7,12.3-14.3C142.6,84.4,137.2,78.3,130.2,77.3L130.2,77.3z"/>
		<path class="st2" d="M57,105.6c-5,0-9-5.5-9-12.3c0-6.8,4.1-12.3,9-12.3v2.5c-3.6,0-6.6,4.4-6.6,9.8c0,5.4,3,9.8,6.6,9.8V105.6z"
			/>
		<path class="st2" d="M61.6,88.4c-2,0-3.1-0.1-3.3-0.1l0.3-2.4c0.3,0,31,3.2,54.2-27.3l1.9,1.5c-12.6,16.5-27.2,23.3-37.2,26
			C70.6,88,64.9,88.4,61.6,88.4z"/>
		<path class="st2" d="M122,86.7c-14.3,0-25.6-9.4-26.2-9.9l1.5-1.9C97.6,75,113.2,88,130.1,83l0.7,2.4
			C127.8,86.3,124.8,86.7,122,86.7z"/>
		<path class="st2" d="M95,121c-6.9,0-12.6-4.7-12.7-4.8l1.5-1.9c0.5,0.4,11.2,9.3,20.4,0.1l1.7,1.7C102.4,119.8,98.5,121,95,121
			L95,121z"/>
	</g>
</g>
</svg>
