<?xml version="1.0" encoding="utf-8"?>
<!-- Generator: Adobe Illustrator 27.0.0, SVG Export Plug-In . SVG Version: 6.00 Build 0)  -->
<svg version="1.1" id="Layer_1" xmlns="http://www.w3.org/2000/svg" xmlns:xlink="http://www.w3.org/1999/xlink" x="0px" y="0px"
	 viewBox="0 0 191 191" style="enable-background:new 0 0 191 191;" xml:space="preserve">
<style type="text/css">
	.st0{fill:#F5F5F5;}
	.st1{clip-path:url(#SVGID_00000166669252819136327140000007558977500896934547_);}
	.st2{fill:#000002;}
	.st3{fill:#F2631F;}
</style>
<circle class="st0" cx="95.5" cy="95.5" r="95.5"/>
<g>
	<defs>
		<rect id="SVGID_1_" x="60" y="45" width="93" height="96"/>
	</defs>
	<clipPath id="SVGID_00000072969076113878982270000014894358133026879145_">
		<use xlink:href="#SVGID_1_"  style="overflow:visible;"/>
	</clipPath>
	<g style="clip-path:url(#SVGID_00000072969076113878982270000014894358133026879145_);">
		<path class="st2" d="M108.1,64.6H83.3c-3.2,0-5.7-2.6-5.7-5.7c0-3.1,2.6-5.7,5.7-5.7h5.4v-2.5c0-3.2,2.6-5.7,5.7-5.7H97
			c3.2,0,5.7,2.6,5.7,5.7v2.5h5.4c3.2,0,5.7,2.6,5.7,5.7C113.8,62,111.3,64.6,108.1,64.6z M83.3,55.6c-1.8,0-3.3,1.5-3.3,3.3
			c0,1.8,1.5,3.3,3.3,3.3h24.8c1.8,0,3.3-1.5,3.3-3.3c0-1.8-1.5-3.3-3.3-3.3h-6.7c-0.7,0-1.2-0.5-1.2-1.2v-3.7
			c0-1.8-1.5-3.3-3.3-3.3h-2.6c-1.8,0-3.3,1.5-3.3,3.3v3.7c0,0.7-0.5,1.2-1.2,1.2H83.3z"/>
		<path class="st2" d="M131.4,89.1H129V60.1h-16.6v-2.4h17.8c0.7,0,1.2,0.5,1.2,1.2V89.1z"/>
		<path class="st2" d="M130.2,141h-69c-0.7,0-1.2-0.5-1.2-1.2V58.8c0-0.7,0.5-1.2,1.2-1.2h17.6v2.4H62.4v78.5H129v-28.9h2.4v30.2
			C131.4,140.5,130.9,141,130.2,141z"/>
		<path class="st2" d="M116.9,77.9H74.5v2.4h42.4V77.9z"/>
		<path class="st2" d="M116.9,92.6H74.5v2.4h42.4V92.6z"/>
		<path class="st2" d="M102.5,107.3h-28v2.4h28V107.3z"/>
		<path class="st2" d="M102.5,122.1h-28v2.4h28V122.1z"/>
		<path class="st3" d="M120.7,120.3l-10.9,0.6l0.6-10.9L141,79.4l10.3,10.3L120.7,120.3z"/>
		<path d="M108.4,122.3l0.7-12.8L141,77.7l12,12.1l-31.8,31.8L108.4,122.3L108.4,122.3z M111.6,110.6l-0.5,9.1l9.1-0.5l29.4-29.4
			l-8.6-8.6L111.6,110.6z"/>
		<path d="M112.1,108.3l-1.7,1.7l10.3,10.3l1.7-1.7L112.1,108.3z"/>
		<path d="M136.3,84.1l-1.7,1.7l10.3,10.3l1.7-1.7L136.3,84.1z"/>
	</g>
</g>
</svg>
