<?xml version="1.0" encoding="utf-8"?>
<!-- Generator: Adobe Illustrator 27.0.0, SVG Export Plug-In . SVG Version: 6.00 Build 0)  -->
<svg version="1.1" id="Layer_1" xmlns="http://www.w3.org/2000/svg" xmlns:xlink="http://www.w3.org/1999/xlink" x="0px" y="0px"
	 viewBox="0 0 191 191" style="enable-background:new 0 0 191 191;" xml:space="preserve">
<style type="text/css">
	.st0{fill:#F5F5F5;}
	.st1{clip-path:url(#SVGID_00000019673895680636267630000005235374162478272144_);}
	.st2{fill:#000002;}
	.st3{fill:#F2631F;}
</style>
<circle class="st0" cx="95.5" cy="95.5" r="95.5"/>
<g>
	<defs>
		<rect id="SVGID_1_" x="46" y="48" width="99" height="93"/>
	</defs>
	<clipPath id="SVGID_00000095333548945828719480000002976440735776993687_">
		<use xlink:href="#SVGID_1_"  style="overflow:visible;"/>
	</clipPath>
	<g style="clip-path:url(#SVGID_00000095333548945828719480000002976440735776993687_);">
		<path class="st2" d="M129.5,63.9H61.5V48h67.9V63.9z M64,61.5h63v-11H64V61.5z"/>
		<path class="st3" d="M143.3,102.4c-3,0-3,2.3-6,2.3c-3,0-3-2.3-6-2.3c-3,0-3,2.3-6,2.3c-3,0-3-2.3-6-2.3s-3,2.3-6,2.3
			s-3-2.3-6-2.3c-3,0-3,2.3-6,2.3c-3,0-3-2.3-6-2.3c-3,0-3,2.3-6,2.3c-3,0-3-2.3-6-2.3c-3,0-3,2.3-6,2.3c-3,0-3-2.3-6-2.3
			s-3,2.3-6,2.3c-3,0-3-2.3-6-2.3c-3,0-3,2.3-6,2.3c-3,0-3-2.3-6-2.3l9.9-31c2.4,0,2.4,1.6,4.7,1.6c2.4,0,2.4-1.6,4.7-1.6
			s2.4,1.6,4.7,1.6c2.4,0,2.4-1.6,4.7-1.6c2.4,0,2.4,1.6,4.7,1.6c2.4,0,2.4-1.6,4.7-1.6c2.4,0,2.4,1.6,4.7,1.6
			c2.4,0,2.4-1.6,4.7-1.6c2.4,0,2.4,1.6,4.7,1.6c2.4,0,2.4-1.6,4.7-1.6c2.4,0,2.4,1.6,4.7,1.6c2.4,0,2.4-1.6,4.8-1.6
			s2.4,1.6,4.8,1.6s2.4-1.6,4.8-1.6s2.4,1.6,4.8,1.6s2.4-1.6,4.8-1.6L143.3,102.4L143.3,102.4z"/>
		<path d="M137.3,105.9c-1.9,0-2.9-0.8-3.7-1.4c-0.7-0.5-1.2-0.9-2.2-0.9s-1.5,0.3-2.2,0.9c-0.8,0.6-1.8,1.4-3.7,1.4
			c-1.9,0-2.9-0.8-3.7-1.4c-0.7-0.5-1.2-0.9-2.2-0.9s-1.5,0.3-2.2,0.9c-0.8,0.6-1.8,1.4-3.7,1.4s-2.9-0.8-3.7-1.4
			c-0.7-0.5-1.2-0.9-2.2-0.9s-1.5,0.3-2.2,0.9c-0.8,0.6-1.8,1.4-3.7,1.4c-1.9,0-2.9-0.8-3.7-1.4c-0.7-0.5-1.2-0.9-2.2-0.9
			s-1.5,0.3-2.2,0.9c-0.8,0.6-1.8,1.4-3.7,1.4c-1.9,0-2.9-0.8-3.7-1.4c-0.7-0.5-1.2-0.9-2.2-0.9c-1.1,0-1.5,0.3-2.2,0.9
			c-0.8,0.6-1.8,1.4-3.7,1.4c-1.9,0-2.9-0.8-3.7-1.4c-0.7-0.5-1.2-0.9-2.2-0.9c-1.1,0-1.5,0.3-2.2,0.9c-0.8,0.6-1.8,1.4-3.7,1.4
			c-1.9,0-2.9-0.8-3.7-1.4c-0.7-0.5-1.2-0.9-2.2-0.9c-1.1,0-1.5,0.3-2.2,0.9c-0.8,0.6-1.8,1.4-3.7,1.4c-1.9,0-2.9-0.8-3.7-1.4
			c-0.7-0.5-1.2-0.9-2.2-0.9H46l10.7-33.5h0.9c1.6,0,2.4,0.6,3.1,1.1c0.5,0.4,0.9,0.6,1.7,0.6s1.1-0.2,1.7-0.6
			c0.6-0.4,1.5-1.1,3.1-1.1c1.6,0,2.4,0.6,3.1,1.1c0.5,0.4,0.9,0.6,1.7,0.6c0.8,0,1.1-0.2,1.7-0.6c0.6-0.4,1.5-1.1,3.1-1.1
			c1.6,0,2.4,0.6,3.1,1.1c0.5,0.4,0.9,0.6,1.7,0.6s1.1-0.2,1.7-0.6c0.6-0.4,1.5-1.1,3.1-1.1c1.6,0,2.4,0.6,3.1,1.1
			c0.5,0.4,0.9,0.6,1.7,0.6c0.8,0,1.1-0.2,1.7-0.6c0.6-0.4,1.5-1.1,3.1-1.1c1.6,0,2.4,0.6,3.1,1c0.5,0.4,0.9,0.6,1.7,0.6
			c0.8,0,1.1-0.2,1.7-0.6c0.6-0.4,1.5-1.1,3.1-1.1c1.6,0,2.4,0.6,3.1,1.1c0.5,0.4,0.9,0.6,1.7,0.6c0.8,0,1.1-0.2,1.7-0.6
			c0.6-0.4,1.5-1,3.1-1c1.6,0,2.4,0.6,3.1,1.1c0.5,0.4,0.9,0.6,1.7,0.6c0.8,0,1.1-0.2,1.7-0.6c0.6-0.4,1.5-1,3.1-1
			c1.6,0,2.4,0.6,3.1,1c0.5,0.4,0.9,0.6,1.7,0.6c0.8,0,1.1-0.2,1.7-0.6c0.6-0.4,1.5-1,3.1-1h0.9l10.7,33.5h-1.7
			c-1.1,0-1.6,0.3-2.2,0.9c-0.8,0.6-1.8,1.4-3.7,1.4H137.3z M131.4,101.2c1.9,0,2.9,0.8,3.7,1.4c0.7,0.5,1.2,0.9,2.2,0.9
			s1.6-0.3,2.2-0.9c0.5-0.4,1.2-0.9,2.1-1.2l-9.1-28.7c-0.3,0.1-0.5,0.3-0.8,0.5c-0.6,0.4-1.5,1-3.1,1c-1.6,0-2.4-0.6-3.1-1
			c-0.5-0.4-0.9-0.6-1.7-0.6c-0.8,0-1.1,0.2-1.7,0.6c-0.6,0.4-1.5,1-3.1,1c-1.6,0-2.4-0.6-3.1-1c-0.5-0.4-0.9-0.6-1.7-0.6
			c-0.8,0-1.1,0.2-1.7,0.6c-0.6,0.4-1.5,1-3.1,1c-1.6,0-2.4-0.6-3.1-1.1c-0.5-0.4-0.9-0.6-1.7-0.6c-0.8,0-1.1,0.2-1.7,0.6
			c-0.6,0.4-1.5,1.1-3.1,1.1c-1.6,0-2.4-0.6-3.1-1c-0.5-0.4-0.9-0.6-1.7-0.6c-0.8,0-1.1,0.2-1.7,0.6c-0.6,0.4-1.5,1-3.1,1
			s-2.4-0.6-3.1-1.1c-0.5-0.4-0.9-0.6-1.7-0.6c-0.8,0-1.1,0.2-1.7,0.6c-0.6,0.4-1.5,1-3.1,1c-1.6,0-2.4-0.6-3.1-1.1
			c-0.5-0.4-0.9-0.6-1.7-0.6c-0.8,0-1.1,0.2-1.7,0.6c-0.6,0.4-1.5,1.1-3.1,1.1c-1.6,0-2.4-0.6-3.1-1.1c-0.5-0.4-0.9-0.6-1.7-0.6
			c-0.8,0-1.1,0.2-1.7,0.6c-0.6,0.4-1.5,1.1-3.1,1.1s-2.4-0.6-3.1-1.1c-0.3-0.2-0.5-0.4-0.8-0.5l-9,28.7c0.9,0.3,1.6,0.8,2.1,1.2
			c0.7,0.5,1.2,0.9,2.2,0.9c1.1,0,1.5-0.3,2.2-0.9c0.8-0.6,1.8-1.4,3.7-1.4c1.9,0,2.9,0.8,3.7,1.4c0.7,0.5,1.2,0.9,2.2,0.9
			s1.5-0.3,2.2-0.9c0.8-0.6,1.8-1.4,3.7-1.4c1.9,0,2.9,0.8,3.7,1.4c0.7,0.5,1.2,0.9,2.2,0.9s1.5-0.3,2.2-0.9
			c0.8-0.6,1.8-1.4,3.7-1.4c1.9,0,2.9,0.8,3.7,1.4c0.7,0.5,1.2,0.9,2.2,0.9s1.5-0.3,2.2-0.9c0.8-0.6,1.8-1.4,3.7-1.4
			c1.9,0,2.9,0.8,3.7,1.4c0.7,0.5,1.2,0.9,2.2,0.9s1.5-0.3,2.2-0.9c0.8-0.6,1.8-1.4,3.7-1.4c1.9,0,2.9,0.8,3.7,1.4
			c0.7,0.5,1.2,0.9,2.2,0.9s1.5-0.3,2.2-0.9c0.8-0.6,1.8-1.4,3.7-1.4c1.9,0,2.9,0.8,3.7,1.4c0.7,0.5,1.2,0.9,2.2,0.9
			c1.1,0,1.5-0.3,2.2-0.9c0.8-0.6,1.8-1.4,3.7-1.4L131.4,101.2z"/>
		<path class="st2" d="M60.8,102.4l-2.4-0.6l7.4-31.3l2.4,0.6L60.8,102.4z"/>
		<path class="st2" d="M75.3,70.7l-5,31.2l2.4,0.4l5-31.2L75.3,70.7z"/>
		<path class="st2" d="M96.7,70.9h-2.5v31.3h2.5V70.9z"/>
		<path class="st2" d="M106.2,70.8l-2.5,0.2l2.5,31.2l2.5-0.2L106.2,70.8z"/>
		<path class="st2" d="M115.7,70.7l-2.4,0.4l4.9,31.2l2.4-0.4L115.7,70.7z"/>
		<path class="st2" d="M125.1,70.6l-2.4,0.6l7.4,31.2l2.4-0.6L125.1,70.6z"/>
		<path class="st2" d="M71.9,63.8h-2.5v9.5h2.5V63.8z"/>
		<path class="st2" d="M122.9,63.8h-2.5v9.5h2.5V63.8z"/>
		<path class="st2" d="M107.4,131.5H65.6c-0.7,0-1.2-0.5-1.2-1.2v-22.2c0-0.7,0.5-1.2,1.2-1.2h41.8c0.7,0,1.2,0.5,1.2,1.2v22.2
			C108.7,131,108.1,131.5,107.4,131.5z M66.9,129.1h39.3v-19.8H66.8L66.9,129.1L66.9,129.1z"/>
		<path class="st2" d="M127.6,141h-15.2c-0.7,0-1.2-0.5-1.2-1.2V113c0-0.7,0.5-1.2,1.2-1.2h15.2c0.7,0,1.2,0.5,1.2,1.2v26.8
			C128.9,140.5,128.3,141,127.6,141z M113.6,138.6h12.8v-24.4h-12.8V138.6z"/>
		<path class="st2" d="M132.6,141H57.1c-0.7,0-1.2-0.5-1.2-1.2v-36.7h2.5v35.5h73v-35.5h2.5v36.7C133.8,140.5,133.3,141,132.6,141
			L132.6,141z"/>
		<path class="st2" d="M84.8,70.8L82.3,102l2.5,0.2L87.2,71L84.8,70.8z"/>
	</g>
</g>
</svg>
